<svg xmlns="http://www.w3.org/2000/svg" viewBox="0 0 140 39"><defs><style>.cls-1{fill:#0b64a4;}.cls-2{fill:#fff;}</style></defs><g id="Layer_2" data-name="Layer 2"><g id="Layer_1-2" data-name="Layer 1"><rect class="cls-1" x="19.5" width="101" height="39"/><circle class="cls-1" cx="19.5" cy="19.5" r="19.5"/><circle class="cls-1" cx="120.5" cy="19.5" r="19.5"/><path class="cls-2" d="M18.2,14.7h3.1a5.82,5.82,0,0,1,1.9.3,3.39,3.39,0,0,1,1.4.9,3.77,3.77,0,0,1,.9,1.5,6.82,6.82,0,0,1,0,4,3.77,3.77,0,0,1-.9,1.5,7.1,7.1,0,0,1-1.4,1,5.82,5.82,0,0,1-1.9.3H18.2Zm3.1,8.5a5.07,5.07,0,0,0,1.3-.2,2.29,2.29,0,0,0,1-.7,4.13,4.13,0,0,0,.7-1.1,4.42,4.42,0,0,0,.2-1.7,7.93,7.93,0,0,0-.2-1.7,3,3,0,0,0-.7-1.1,2.07,2.07,0,0,0-1-.6,5.07,5.07,0,0,0-1.3-.2H19.4v7.3Z"/><path class="cls-2" d="M30.5,24.4a3.53,3.53,0,0,1-1.4-.3,2.84,2.84,0,0,1-1.1-.8,2.92,2.92,0,0,1-.7-1.2,3.9,3.9,0,0,1,0-3,3.46,3.46,0,0,1,.7-1.2,4.44,4.44,0,0,1,1.1-.8,3.19,3.19,0,0,1,1.4-.3,3.53,3.53,0,0,1,1.4.3,4.44,4.44,0,0,1,1.1.8,2.4,2.4,0,0,1,.7,1.2,3.9,3.9,0,0,1,0,3,3.46,3.46,0,0,1-.7,1.2,4.44,4.44,0,0,1-1.1.8A3.19,3.19,0,0,1,30.5,24.4Zm0-1a2.92,2.92,0,0,0,.9-.2,1.79,1.79,0,0,0,.7-.5,2.18,2.18,0,0,0,.5-.8,3.73,3.73,0,0,0,.2-1.2,5,5,0,0,0-.2-1.2,4.05,4.05,0,0,0-.5-.9,1.53,1.53,0,0,0-.7-.5,2.92,2.92,0,0,0-.9-.2,2.92,2.92,0,0,0-.9.2,1.79,1.79,0,0,0-.7.5,1.93,1.93,0,0,0-.5.9,3.73,3.73,0,0,0-.2,1.2,5,5,0,0,0,.2,1.2,2.18,2.18,0,0,0,.5.8,3,3,0,0,0,.7.5A2.92,2.92,0,0,0,30.5,23.4Z"/><path class="cls-2" d="M34.7,17.1h1.2l1.3,4.7c0,.1.1.2.1.3a.37.37,0,0,0,.1.3.14.14,0,0,1,0,.2v.1a1,1,0,0,1,.1-.4c0-.2.1-.4.1-.6L38.9,17h1.2l1.4,4.7c0,.1.1.2.1.3a.37.37,0,0,0,.1.3c0,.1,0,.2.1.2s0,.1,0,.1v-.1c0-.1,0-.2.1-.2A.37.37,0,0,1,42,22a.37.37,0,0,1,.1-.3L43.4,17h1.2l-2.1,7.2H41.3L40,19.7c0-.1-.1-.2-.1-.4s-.1-.3-.1-.4a.37.37,0,0,0-.1-.3c-.1-.1,0-.1,0-.2v.2a.37.37,0,0,1-.1.3c0,.1-.1.2-.1.4s-.1.3-.1.4l-1.3,4.5H36.9Z"/><path class="cls-2" d="M45.9,17.1H47v1a3.82,3.82,0,0,1,.9-.9,2.66,2.66,0,0,1,1.2-.3,4.25,4.25,0,0,1,1.1.2,1.56,1.56,0,0,1,.8.6,4.05,4.05,0,0,1,.5.9,5,5,0,0,1,.2,1.2v4.4H50.6V19.7a1.7,1.7,0,0,0-.4-1.3,1.73,1.73,0,0,0-1.3-.5,1.48,1.48,0,0,0-.7.1,1.84,1.84,0,0,0-1,1,1.7,1.7,0,0,0-.1.7v4.5H46V17.1Z"/><path class="cls-2" d="M53.9,13.9H55V24.3H53.9Z"/><path class="cls-2" d="M60.2,24.4a3.53,3.53,0,0,1-1.4-.3,2.84,2.84,0,0,1-1.1-.8,2.92,2.92,0,0,1-.7-1.2,3.9,3.9,0,0,1,0-3,3.46,3.46,0,0,1,.7-1.2,4.44,4.44,0,0,1,1.1-.8,3.19,3.19,0,0,1,1.4-.3,3.53,3.53,0,0,1,1.4.3,4.44,4.44,0,0,1,1.1.8,2.4,2.4,0,0,1,.7,1.2,3.9,3.9,0,0,1,0,3,3.46,3.46,0,0,1-.7,1.2,4.44,4.44,0,0,1-1.1.8A3.53,3.53,0,0,1,60.2,24.4Zm0-1a2.92,2.92,0,0,0,.9-.2,1.79,1.79,0,0,0,.7-.5,2.18,2.18,0,0,0,.5-.8,3.73,3.73,0,0,0,.2-1.2,5,5,0,0,0-.2-1.2,4.05,4.05,0,0,0-.5-.9,1.53,1.53,0,0,0-.7-.5,2.12,2.12,0,0,0-1.8,0,1.79,1.79,0,0,0-.7.5,1.93,1.93,0,0,0-.5.9,3.73,3.73,0,0,0-.2,1.2,5,5,0,0,0,.2,1.2,2.18,2.18,0,0,0,.5.8,3,3,0,0,0,.7.5A2.92,2.92,0,0,0,60.2,23.4Z"/><path class="cls-2" d="M67.3,24.4a2.48,2.48,0,0,1-.9-.1,3,3,0,0,1-.8-.4,2.65,2.65,0,0,1-.5-.6,2.39,2.39,0,0,1-.2-.9,2.92,2.92,0,0,1,.2-.9,1,1,0,0,1,.5-.6,2,2,0,0,1,.8-.4,3.59,3.59,0,0,1,1.1-.2c.4-.1.7-.1,1-.2a6.37,6.37,0,0,0,.7-.2,1.38,1.38,0,0,0,.4-.3.75.75,0,0,0,.1-.5,1,1,0,0,0-.4-.9,2.13,2.13,0,0,0-1.2-.3,2,2,0,0,0-1.1.3,1.46,1.46,0,0,0-.6.9H65.2a1.8,1.8,0,0,1,.9-1.6,4,4,0,0,1,4.2,0,2.18,2.18,0,0,1,.7,1.6v3.7a2,2,0,0,0,.1.8c.1.3.1.5.2.6H70.2c0-.1-.1-.2-.2-.4a1.27,1.27,0,0,1-.1-.6,2.09,2.09,0,0,1-1,.8A2.93,2.93,0,0,1,67.3,24.4Zm0-1a3.4,3.4,0,0,0,1-.1,2,2,0,0,0,.8-.4c.2-.2.4-.3.5-.6a1.88,1.88,0,0,0,.2-.8V20.3a2.15,2.15,0,0,1-.7.4c-.3.1-.8.2-1.5.4a3.37,3.37,0,0,0-1.2.4c-.3.2-.3.4-.3.8a.81.81,0,0,0,.4.8A1.14,1.14,0,0,0,67.3,23.4Z"/><path class="cls-2" d="M75.8,24.4a2.77,2.77,0,0,1-1.3-.3,3.92,3.92,0,0,1-1-.8,3.46,3.46,0,0,1-.7-1.2,3.89,3.89,0,0,1-.2-1.5,7.72,7.72,0,0,1,.2-1.5,3.46,3.46,0,0,1,.7-1.2,3.92,3.92,0,0,1,1-.8,2.77,2.77,0,0,1,1.3-.3,2.41,2.41,0,0,1,1.5.4,4.74,4.74,0,0,1,1,1V13.7h1.1V24.1H78.3V22.7a3.46,3.46,0,0,1-1,1.1A1.72,1.72,0,0,1,75.8,24.4Zm.2-1a2.92,2.92,0,0,0,.9-.2,1.79,1.79,0,0,0,.7-.5,2.18,2.18,0,0,0,.5-.8,3.73,3.73,0,0,0,.2-1.2,5,5,0,0,0-.2-1.2,4.05,4.05,0,0,0-.5-.9,1.79,1.79,0,0,0-.7-.5,2.12,2.12,0,0,0-1.8,0,1.79,1.79,0,0,0-.7.5,1.93,1.93,0,0,0-.5.9,3.73,3.73,0,0,0-.2,1.2,5,5,0,0,0,.2,1.2,2.18,2.18,0,0,0,.5.8,1.79,1.79,0,0,0,.7.5A2.92,2.92,0,0,0,76,23.4Z"/><path class="cls-2" d="M88.9,24.4a6.05,6.05,0,0,1-1.5-.2,4.73,4.73,0,0,1-1.2-.7,3.92,3.92,0,0,1-.8-1,2.66,2.66,0,0,1-.3-1.2h1.2a2.13,2.13,0,0,0,.7,1.5,2.57,2.57,0,0,0,1.8.5,2.65,2.65,0,0,0,1.7-.5,1.43,1.43,0,0,0,.6-1.2A1.27,1.27,0,0,0,91,21a1.76,1.76,0,0,0-.4-.5,4.35,4.35,0,0,0-.7-.4,10.38,10.38,0,0,0-1.2-.3,5.73,5.73,0,0,1-1.4-.4,3.33,3.33,0,0,1-1-.6,1.56,1.56,0,0,1-.6-.8,3.59,3.59,0,0,1-.2-1.1,3.59,3.59,0,0,1,.2-1.1,2.7,2.7,0,0,1,.7-.8,3.13,3.13,0,0,1,1-.5,5.07,5.07,0,0,1,1.3-.2,3.44,3.44,0,0,1,2.4.7,3,3,0,0,1,1,2H90.9a1.74,1.74,0,0,0-.6-1.2,2.54,2.54,0,0,0-1.6-.5,2.08,2.08,0,0,0-1.5.4,1.43,1.43,0,0,0-.5,1.1.75.75,0,0,0,.1.5,1.38,1.38,0,0,0,.3.4c.1.1.4.2.7.4a10.38,10.38,0,0,0,1.2.3c.5.1,1,.3,1.4.4a1.7,1.7,0,0,1,1,.6,1.56,1.56,0,0,1,.6.8,3.73,3.73,0,0,1,.2,1.2,2.66,2.66,0,0,1-.3,1.2,3.11,3.11,0,0,1-.7.9,2.22,2.22,0,0,1-1.1.5C89.9,24.4,89.4,24.4,88.9,24.4Z"/><path class="cls-2" d="M96.4,20.8l-1.2,1.3v2.3H94.1V14h1.1v6.7l3.3-3.5h1.4L97.2,20l2.9,4.4H98.7Z"/><path class="cls-2" d="M101.3,26.1h.1a2.51,2.51,0,0,0,1-.2,1.7,1.7,0,0,0,.6-.8l.3-.9L100.6,17h1.2l1.8,5c0,.1.1.2.1.4s.1.3.1.4.1.3.1.4a.6.6,0,0,1,.1-.4c0-.1.1-.2.1-.4s.1-.3.1-.4l1.7-5h1.2L104,25.4a2.27,2.27,0,0,1-1.1,1.4,2.93,2.93,0,0,1-1.6.4h-.2V26.1Z"/><path class="cls-2" d="M108.3,17.1h1.1v1.3a3.46,3.46,0,0,1,1-1.1,2.41,2.41,0,0,1,1.5-.4,2.77,2.77,0,0,1,1.3.3,3.92,3.92,0,0,1,1,.8,3.46,3.46,0,0,1,.7,1.2,3.64,3.64,0,0,1,.2,1.5,7.72,7.72,0,0,1-.2,1.5,3.46,3.46,0,0,1-.7,1.2,3.92,3.92,0,0,1-1,.8,2.77,2.77,0,0,1-1.3.3,2.41,2.41,0,0,1-1.5-.4,2.66,2.66,0,0,1-1-1.1v4.2h-1.1Zm3.5,6.3a2.92,2.92,0,0,0,.9-.2,1.79,1.79,0,0,0,.7-.5,2.18,2.18,0,0,0,.5-.8,3.73,3.73,0,0,0,.2-1.2,5,5,0,0,0-.2-1.2,2.62,2.62,0,0,0-.5-.9,1.79,1.79,0,0,0-.7-.5,2.12,2.12,0,0,0-1.8,0,1.79,1.79,0,0,0-.7.5,1.93,1.93,0,0,0-.5.9,4.3,4.3,0,0,0-.2,1.2,5,5,0,0,0,.2,1.2,2.18,2.18,0,0,0,.5.8,1.79,1.79,0,0,0,.7.5A2.39,2.39,0,0,0,111.8,23.4Z"/><path class="cls-2" d="M119.9,24.4a3.19,3.19,0,0,1-1.4-.3,2.84,2.84,0,0,1-1.1-.8,2.4,2.4,0,0,1-.7-1.2,4,4,0,0,1-.3-1.5,3.34,3.34,0,0,1,.3-1.5,3.46,3.46,0,0,1,.7-1.2,4.44,4.44,0,0,1,1.1-.8,3.19,3.19,0,0,1,1.4-.3,3.08,3.08,0,0,1,1.3.3,2.84,2.84,0,0,1,1.1.8,3.29,3.29,0,0,1,.7,1.3,3.46,3.46,0,0,1,.2,1.8h-5.7a1.49,1.49,0,0,0,.3,1,1.79,1.79,0,0,0,.5.7,2.51,2.51,0,0,0,.7.4,2.2,2.2,0,0,0,.8.1,2.13,2.13,0,0,0,1.2-.3,1.78,1.78,0,0,0,.7-.8h1.2a3.55,3.55,0,0,1-.4.9,2.34,2.34,0,0,1-.7.7c-.3.2-.6.3-.9.5A1.5,1.5,0,0,1,119.9,24.4ZM122,20a2,2,0,0,0-.2-.9,3,3,0,0,0-.5-.7,2.09,2.09,0,0,0-.6-.4,2.5,2.5,0,0,0-1.4,0,2.51,2.51,0,0,0-.7.4,1.79,1.79,0,0,0-.5.7,1.69,1.69,0,0,0-.3,1H122Z"/></g></g></svg>