<svg xmlns="http://www.w3.org/2000/svg" viewBox="0 0 166.5 38.9"><g id="Layer_2" data-name="Layer 2"><g id="Layer_1-2" data-name="Layer 1"><path d="M5.2,13.7a5.41,5.41,0,0,1-1.9-.3,5.3,5.3,0,0,1-1.5-.8,4.49,4.49,0,0,1-1-1.3A4.19,4.19,0,0,1,.4,9.7H2a2.32,2.32,0,0,0,.9,1.9,3.33,3.33,0,0,0,2.3.7,3.4,3.4,0,0,0,2.2-.6,1.8,1.8,0,0,0,.7-1.5A2.2,2.2,0,0,0,8,9.4a1.33,1.33,0,0,0-.5-.6,1.87,1.87,0,0,0-1-.5,12.26,12.26,0,0,0-1.6-.4,7.76,7.76,0,0,1-1.8-.5,5.39,5.39,0,0,1-1.3-.7,3.92,3.92,0,0,1-.8-1A2.9,2.9,0,0,1,.7,4.3,3.19,3.19,0,0,1,1,2.9a2.72,2.72,0,0,1,.8-1,3.93,3.93,0,0,1,1.3-.6,7.77,7.77,0,0,1,1.6-.2,4.29,4.29,0,0,1,3.1,1A3.47,3.47,0,0,1,9.1,4.7H7.6a2.24,2.24,0,0,0-.8-1.5,3.28,3.28,0,0,0-2.1-.6,3.09,3.09,0,0,0-1.9.5,1.68,1.68,0,0,0-.6,1.4,1.48,1.48,0,0,0,.1.7,2.09,2.09,0,0,0,.4.6,3.6,3.6,0,0,0,.9.5,15.46,15.46,0,0,0,1.5.4c.7.2,1.3.3,1.8.5a4,4,0,0,1,1.3.7A2.26,2.26,0,0,1,9,9a3.34,3.34,0,0,1,.3,1.5A3.34,3.34,0,0,1,9,12a3.13,3.13,0,0,1-.9,1.1,6.11,6.11,0,0,1-1.4.7C6.2,14,5.8,13.7,5.2,13.7Z"/><path d="M11.8.1h1.5V5.5a2.54,2.54,0,0,1,1.2-1.1A2.93,2.93,0,0,1,16.1,4a3.19,3.19,0,0,1,1.4.3,2.54,2.54,0,0,1,1,.8,3.46,3.46,0,0,1,.7,1.2,7.77,7.77,0,0,1,.2,1.6v5.7H17.9V7.9a2.86,2.86,0,0,0-.5-1.7,2.11,2.11,0,0,0-1.6-.6,3.55,3.55,0,0,0-1,.2,3.51,3.51,0,0,0-.8.5,3,3,0,0,0-.5.7,3,3,0,0,0-.2,1v5.8H11.8V.1Z"/><path d="M24.5,13.7a5,5,0,0,1-1.2-.2,3.13,3.13,0,0,1-1-.5,2.7,2.7,0,0,1-.7-.8,2.17,2.17,0,0,1-.2-1.2,2.66,2.66,0,0,1,.3-1.2,2.7,2.7,0,0,1,.7-.8,2.81,2.81,0,0,1,1.1-.5c.4-.1.9-.2,1.4-.3s.9-.1,1.2-.2a4.65,4.65,0,0,0,.9-.3,1,1,0,0,0,.5-.4,1.42,1.42,0,0,0,.2-.6,1.66,1.66,0,0,0-.5-1.2c-.3-.3-.8-.3-1.5-.3a2.41,2.41,0,0,0-1.5.4,1.39,1.39,0,0,0-.7,1.2H22a2.75,2.75,0,0,1,1.1-2.1,4.55,4.55,0,0,1,2.7-.8,4.14,4.14,0,0,1,2.7.8,2.52,2.52,0,0,1,.8,2.1v4.8a4.1,4.1,0,0,0,.1,1.1,4.5,4.5,0,0,1,.2.8H28.1c-.1-.1-.1-.3-.2-.5a1.7,1.7,0,0,1-.1-.7,4.26,4.26,0,0,1-1.2,1.1A4.66,4.66,0,0,1,24.5,13.7Zm0-1.3a4.3,4.3,0,0,0,1.2-.2,3.13,3.13,0,0,0,1-.5,1.34,1.34,0,0,0,.6-.7,1.64,1.64,0,0,0,.2-1V8.5a3.6,3.6,0,0,1-.9.5,9.79,9.79,0,0,1-1.9.5,3.71,3.71,0,0,0-1.5.5,1.16,1.16,0,0,0-.4,1,1.1,1.1,0,0,0,.5,1A1.59,1.59,0,0,0,24.5,12.4Z"/><path d="M31.9,4.2h1.4V5.8a5.55,5.55,0,0,1,.6-.8,2.18,2.18,0,0,1,.8-.5c.3-.1.5-.2.8-.3s.6-.1.8,0V5.7a4.87,4.87,0,0,0-1.2.1,3,3,0,0,0-1,.4,2.7,2.7,0,0,0-.7.8,2.17,2.17,0,0,0-.2,1.2v5.4H31.7V4.2Z"/><path d="M42,13.7a3.92,3.92,0,0,1-1.8-.4,3.59,3.59,0,0,1-1.4-1,5.6,5.6,0,0,1-1-1.5,6.47,6.47,0,0,1-.4-2,4.48,4.48,0,0,1,.4-2,4,4,0,0,1,1-1.5,4.51,4.51,0,0,1,1.4-1A4.78,4.78,0,0,1,42,3.9a5.08,5.08,0,0,1,1.7.3,4.51,4.51,0,0,1,1.4,1A4.61,4.61,0,0,1,46,6.9a8,8,0,0,1,.3,2.3H39a2.5,2.5,0,0,0,.3,1.3,3.59,3.59,0,0,0,.7,1,4.7,4.7,0,0,0,.9.6,3.59,3.59,0,0,0,1.1.2,2.73,2.73,0,0,0,1.6-.4,2.44,2.44,0,0,0,.9-1.1h1.6a3.7,3.7,0,0,1-.5,1.1,3.82,3.82,0,0,1-.9.9,3.37,3.37,0,0,1-1.2.6A4,4,0,0,1,42,13.7ZM44.6,8a3.5,3.5,0,0,0-.3-1.2,5.55,5.55,0,0,0-.6-.8,2.18,2.18,0,0,0-.8-.5,3,3,0,0,0-1-.2,2.92,2.92,0,0,0-.9.2,4.05,4.05,0,0,0-.9.5,2.7,2.7,0,0,0-.7.8A3.37,3.37,0,0,0,39,8Z"/><path d="M56.1,13.7a5,5,0,0,1-1.2-.2,3.13,3.13,0,0,1-1-.5,2.7,2.7,0,0,1-.7-.8A2.17,2.17,0,0,1,53,11a2.66,2.66,0,0,1,.3-1.2A2.7,2.7,0,0,1,54,9a2.81,2.81,0,0,1,1.1-.5c.4-.1.9-.2,1.4-.3s.9-.1,1.2-.2a4.65,4.65,0,0,0,.9-.3,1,1,0,0,0,.5-.4,1.42,1.42,0,0,0,.2-.6,1.66,1.66,0,0,0-.5-1.2c-.3-.3-.8-.3-1.5-.3a2.41,2.41,0,0,0-1.5.4,1.39,1.39,0,0,0-.7,1.2H53.6a2.75,2.75,0,0,1,1.1-2.1,4.55,4.55,0,0,1,2.7-.8,4.14,4.14,0,0,1,2.7.8,2.52,2.52,0,0,1,.8,2.1v4.8a4.1,4.1,0,0,0,.1,1.1,4.5,4.5,0,0,1,.2.8H59.7c-.1-.1-.1-.3-.2-.5a1.7,1.7,0,0,1-.1-.7,4.26,4.26,0,0,1-1.2,1.1A4.45,4.45,0,0,1,56.1,13.7Zm.1-1.3a4.3,4.3,0,0,0,1.2-.2,3.13,3.13,0,0,0,1-.5A1.34,1.34,0,0,0,59,11a1.64,1.64,0,0,0,.2-1V8.5a3.6,3.6,0,0,1-.9.5,9.79,9.79,0,0,1-1.9.5,3.71,3.71,0,0,0-1.5.5,1.16,1.16,0,0,0-.4,1,1.1,1.1,0,0,0,.5,1A1.59,1.59,0,0,0,56.2,12.4Z"/><path d="M69.2,5.6H67.9V4.2h1.3V3.6A7.77,7.77,0,0,1,69.4,2,4.13,4.13,0,0,1,70.1.9a3.59,3.59,0,0,1,1-.7A5.07,5.07,0,0,1,72.4,0H73V1.3h-.6a2,2,0,0,0-1.4.5,2.46,2.46,0,0,0-.5,1.7v.6h2.3V5.5H70.7v7.9H69.2Z"/><path d="M78,13.7a3.19,3.19,0,0,1-1.4-.3,2.54,2.54,0,0,1-1-.8,4.73,4.73,0,0,1-.7-1.2,7.77,7.77,0,0,1-.2-1.6V4.1h1.5V9.8a2.86,2.86,0,0,0,.5,1.7,2.11,2.11,0,0,0,1.6.6,2.39,2.39,0,0,0,.9-.2,3.51,3.51,0,0,0,.8-.5,1.79,1.79,0,0,0,.5-.7,2.92,2.92,0,0,0,.2-.9V4h1.5v9.3H80.8V12a4.56,4.56,0,0,1-1.2,1.2A2.77,2.77,0,0,1,78,13.7Z"/><path d="M85,4.2h1.4V5.5a3.45,3.45,0,0,1,1.2-1.2,2.93,2.93,0,0,1,1.6-.4,3.19,3.19,0,0,1,1.4.3,2.54,2.54,0,0,1,1,.8,3.46,3.46,0,0,1,.7,1.2,7.77,7.77,0,0,1,.2,1.6v5.7H91V7.8a2.86,2.86,0,0,0-.5-1.7,2.11,2.11,0,0,0-1.6-.6,3.55,3.55,0,0,0-1,.2,3.51,3.51,0,0,0-.8.5,3,3,0,0,0-.5.7,3,3,0,0,0-.2,1v5.8H84.9V4.2Z"/><path d="M100.6,4.2H102V5.4a2.91,2.91,0,0,1,1.1-1.1,2.41,2.41,0,0,1,1.5-.4,2.93,2.93,0,0,1,1.6.4,2.85,2.85,0,0,1,1.1,1.3,4.26,4.26,0,0,1,1.1-1.2,2.86,2.86,0,0,1,1.7-.5,3.17,3.17,0,0,1,2.3.9,3.54,3.54,0,0,1,.8,2.6v6h-1.5v-6a2.35,2.35,0,0,0-.5-1.6,2.17,2.17,0,0,0-1.4-.5,2,2,0,0,0-1.5.6,2.11,2.11,0,0,0-.6,1.6v5.9h-1.5v-6a2.35,2.35,0,0,0-.5-1.6,2,2,0,0,0-1.4-.5,2,2,0,0,0-1.5.6,2.11,2.11,0,0,0-.6,1.6v5.9h-1.5V4.2Z"/><path d="M119.9,13.7a3.29,3.29,0,0,1-1.7-.4,7.1,7.1,0,0,1-1.4-1,3.77,3.77,0,0,1-.9-1.5,5.82,5.82,0,0,1-.3-1.9,5.82,5.82,0,0,1,.3-1.9,5.07,5.07,0,0,1,.9-1.6,4.51,4.51,0,0,1,1.4-1,4.71,4.71,0,0,1,1.7-.4,3.92,3.92,0,0,1,1.8.4,4.51,4.51,0,0,1,1.4,1A4.17,4.17,0,0,1,124,7a5.82,5.82,0,0,1,.3,1.9,5.82,5.82,0,0,1-.3,1.9,3.77,3.77,0,0,1-.9,1.5,4.51,4.51,0,0,1-1.4,1A3.92,3.92,0,0,1,119.9,13.7Zm0-1.3a3.59,3.59,0,0,0,1.1-.2,1.6,1.6,0,0,0,.9-.7,2.38,2.38,0,0,0,.6-1.1,3.42,3.42,0,0,0,.2-1.5,6.05,6.05,0,0,0-.2-1.5,10.91,10.91,0,0,0-.6-1.1,3.11,3.11,0,0,0-.9-.7,2.15,2.15,0,0,0-1.1-.2,3.59,3.59,0,0,0-1.1.2,2.18,2.18,0,0,0-.9.7,3.88,3.88,0,0,0-.6,1.1,3.42,3.42,0,0,0-.2,1.5,6.05,6.05,0,0,0,.2,1.5,10.91,10.91,0,0,0,.6,1.1,5.5,5.5,0,0,0,.9.7A3.59,3.59,0,0,0,119.9,12.4Z"/><path d="M126.5,4.2h1.4V5.4A2.91,2.91,0,0,1,129,4.3a2.41,2.41,0,0,1,1.5-.4,2.93,2.93,0,0,1,1.6.4,2.85,2.85,0,0,1,1.1,1.3,4.26,4.26,0,0,1,1.1-1.2,2.86,2.86,0,0,1,1.7-.5,3.17,3.17,0,0,1,2.3.9,3.54,3.54,0,0,1,.8,2.6v6h-1.5v-6a2.35,2.35,0,0,0-.5-1.6,2.17,2.17,0,0,0-1.4-.5,2,2,0,0,0-1.5.6,2.11,2.11,0,0,0-.6,1.6v5.9h-1.5v-6a2.35,2.35,0,0,0-.5-1.6,2,2,0,0,0-1.4-.5,2,2,0,0,0-1.5.6,2.11,2.11,0,0,0-.6,1.6v5.9h-1.5V4.2Z"/><path d="M145.9,13.7a3.92,3.92,0,0,1-1.8-.4,3.59,3.59,0,0,1-1.4-1,5.6,5.6,0,0,1-1-1.5,6.47,6.47,0,0,1-.4-2,4.48,4.48,0,0,1,.4-2,4,4,0,0,1,1-1.5,4.51,4.51,0,0,1,1.4-1,4.78,4.78,0,0,1,1.8-.4,5.08,5.08,0,0,1,1.7.3,4.51,4.51,0,0,1,1.4,1,4.61,4.61,0,0,1,.9,1.7,8,8,0,0,1,.3,2.3h-7.3a2.5,2.5,0,0,0,.3,1.3,3.59,3.59,0,0,0,.7,1,4.7,4.7,0,0,0,.9.6,3.59,3.59,0,0,0,1.1.2,2.73,2.73,0,0,0,1.6-.4,2.44,2.44,0,0,0,.9-1.1H150a3.7,3.7,0,0,1-.5,1.1,3.82,3.82,0,0,1-.9.9,3.37,3.37,0,0,1-1.2.6A4,4,0,0,1,145.9,13.7ZM148.5,8a3.5,3.5,0,0,0-.3-1.2,5.55,5.55,0,0,0-.6-.8,2.18,2.18,0,0,0-.8-.5,3,3,0,0,0-1-.2,2.92,2.92,0,0,0-.9.2,4.05,4.05,0,0,0-.9.5,2.7,2.7,0,0,0-.7.8,3.37,3.37,0,0,0-.4,1.2Z"/><path d="M152.2,4.2h1.4V5.5a3.45,3.45,0,0,1,1.2-1.2,2.93,2.93,0,0,1,1.6-.4,3.19,3.19,0,0,1,1.4.3,2.54,2.54,0,0,1,1,.8,3.46,3.46,0,0,1,.7,1.2,7.77,7.77,0,0,1,.2,1.6v5.7h-1.5V7.8a2.86,2.86,0,0,0-.5-1.7,2.11,2.11,0,0,0-1.6-.6,3.55,3.55,0,0,0-1,.2,3.51,3.51,0,0,0-.8.5,3,3,0,0,0-.5.7,3,3,0,0,0-.2,1v5.8h-1.5V4.2Z"/><path d="M165.9,13.7a3.37,3.37,0,0,1-2.3-.8,3.39,3.39,0,0,1-.8-2.6V5.6h-1.4V4.2h1.4V1.6h1.5V4.2h2.1V5.6h-2.1v4.7a2.17,2.17,0,0,0,.5,1.6,1.84,1.84,0,0,0,1.3.4h.4v1.3h-.4A.31.31,0,0,1,165.9,13.7Z"/><path d="M0,25.8H1.5l1.7,6c0,.1.1.2.1.4s.1.3.1.4a.37.37,0,0,0,.1.3c.1.1,0,.1,0,.2a1.75,1.75,0,0,1,.1-.5,1.45,1.45,0,0,1,.2-.7l1.7-6H7l1.7,6c0,.1.1.2.1.4s.1.3.1.4A.37.37,0,0,0,9,33c.1.1,0,.1,0,.2V33a.37.37,0,0,1,.1-.3c0-.1.1-.2.1-.4s.1-.3.1-.4l1.7-6h1.5L9.8,35.2H8.3L6.6,29.4a4.33,4.33,0,0,1-.1-.5c0-.2-.1-.3-.1-.5s-.1-.3-.1-.4v0c0,.1-.1.2-.1.4a4.33,4.33,0,0,0-.1.5c0,.2-.1.3-.1.5L4.3,35.2H2.7Z"/><path d="M14.3,22.2h1.6V24H14.3Zm0,3.6h1.5v9.3H14.3Z"/><path d="M22.1,35.3a3.37,3.37,0,0,1-2.3-.8,3.39,3.39,0,0,1-.8-2.6V27.2H17.6V25.8H19V23.2h1.5v2.6h2.1v1.4H20.5v4.7a2.17,2.17,0,0,0,.5,1.6,1.84,1.84,0,0,0,1.3.4h.4v1.3h-.4C22.3,35.3,22.2,35.3,22.1,35.3Z"/><path d="M24.7,21.7h1.5v5.4A2.54,2.54,0,0,1,27.4,26a2.93,2.93,0,0,1,1.6-.4,3.19,3.19,0,0,1,1.4.3,2.54,2.54,0,0,1,1,.8,3.46,3.46,0,0,1,.7,1.2,7.77,7.77,0,0,1,.2,1.6v5.7H30.7V29.5a2.86,2.86,0,0,0-.5-1.7,2.11,2.11,0,0,0-1.6-.6,3.55,3.55,0,0,0-1,.2,3.51,3.51,0,0,0-.8.5,3,3,0,0,0-.5.7,3,3,0,0,0-.2,1v5.8H24.7Z"/><path d="M39.9,37.5h.2a2.9,2.9,0,0,0,1.4-.3,1.83,1.83,0,0,0,.7-1l.4-1.1-3.4-9.2h1.6l2.3,6.4c.1.2.1.3.2.5s.1.3.1.5.1.3.1.5a4.33,4.33,0,0,1,.1-.5,4.33,4.33,0,0,0,.1-.5c0-.2.1-.3.2-.5l2.2-6.4h1.5L43.7,36.6a3.28,3.28,0,0,1-1.4,1.8,4.65,4.65,0,0,1-2.1.5H40V37.5Z"/><path d="M52.8,35.3a3.29,3.29,0,0,1-1.7-.4,7.1,7.1,0,0,1-1.4-1,3.77,3.77,0,0,1-.9-1.5,6.17,6.17,0,0,1,0-3.8,5.07,5.07,0,0,1,.9-1.6,4.51,4.51,0,0,1,1.4-1,4.71,4.71,0,0,1,1.7-.4,3.92,3.92,0,0,1,1.8.4A4.51,4.51,0,0,1,56,27a4.17,4.17,0,0,1,.9,1.6,6.17,6.17,0,0,1,0,3.8,3.77,3.77,0,0,1-.9,1.5,4.51,4.51,0,0,1-1.4,1A3.92,3.92,0,0,1,52.8,35.3Zm0-1.3a3.59,3.59,0,0,0,1.1-.2,1.6,1.6,0,0,0,.9-.7,2.38,2.38,0,0,0,.6-1.1,3.42,3.42,0,0,0,.2-1.5,6.05,6.05,0,0,0-.2-1.5,10.91,10.91,0,0,0-.6-1.1,3.11,3.11,0,0,0-.9-.7,2.15,2.15,0,0,0-1.1-.2,3.59,3.59,0,0,0-1.1.2,2.18,2.18,0,0,0-.9.7,3.88,3.88,0,0,0-.6,1.1,3.42,3.42,0,0,0-.2,1.5,6.05,6.05,0,0,0,.2,1.5,10.91,10.91,0,0,0,.6,1.1,5.5,5.5,0,0,0,.9.7A4.25,4.25,0,0,0,52.8,34Z"/><path d="M62.6,35.3a3.19,3.19,0,0,1-1.4-.3,2.54,2.54,0,0,1-1-.8,4.73,4.73,0,0,1-.7-1.2,7.77,7.77,0,0,1-.2-1.6V25.7h1.5v5.7a2.86,2.86,0,0,0,.5,1.7,2.11,2.11,0,0,0,1.6.6,2.39,2.39,0,0,0,.9-.2,3.51,3.51,0,0,0,.8-.5,1.79,1.79,0,0,0,.5-.7,2.92,2.92,0,0,0,.2-.9V25.6h1.5v9.3H65.4V33.6a4.56,4.56,0,0,1-1.2,1.2A2.77,2.77,0,0,1,62.6,35.3Z"/><path d="M69.6,25.8H71v1.6a5.55,5.55,0,0,1,.6-.8,2.18,2.18,0,0,1,.8-.5c.3-.1.5-.2.8-.3s.6-.1.8,0v1.5a4.87,4.87,0,0,0-1.2.1,3,3,0,0,0-1,.4,2.7,2.7,0,0,0-.7.8,2.17,2.17,0,0,0-.2,1.2v5.4H69.4V25.8Z"/><path d="M81.5,21.7H83V35.1H81.5Z"/><path d="M89.6,35.3a3.29,3.29,0,0,1-1.7-.4,7.1,7.1,0,0,1-1.4-1,3.77,3.77,0,0,1-.9-1.5,6.17,6.17,0,0,1,0-3.8,5.07,5.07,0,0,1,.9-1.6,4.51,4.51,0,0,1,1.4-1,4.71,4.71,0,0,1,1.7-.4,3.92,3.92,0,0,1,1.8.4,4.51,4.51,0,0,1,1.4,1,4.17,4.17,0,0,1,.9,1.6,6.17,6.17,0,0,1,0,3.8,3.77,3.77,0,0,1-.9,1.5,4.51,4.51,0,0,1-1.4,1A3.92,3.92,0,0,1,89.6,35.3Zm0-1.3a3.59,3.59,0,0,0,1.1-.2,1.6,1.6,0,0,0,.9-.7,2.38,2.38,0,0,0,.6-1.1,3.42,3.42,0,0,0,.2-1.5,6.05,6.05,0,0,0-.2-1.5,10.91,10.91,0,0,0-.6-1.1,3.11,3.11,0,0,0-.9-.7,2.15,2.15,0,0,0-1.1-.2,3.59,3.59,0,0,0-1.1.2,2.18,2.18,0,0,0-.9.7A3.88,3.88,0,0,0,87,29a3.42,3.42,0,0,0-.2,1.5A6.05,6.05,0,0,0,87,32a10.91,10.91,0,0,0,.6,1.1,5.5,5.5,0,0,0,.9.7A3.59,3.59,0,0,0,89.6,34Z"/><path d="M95,25.8h1.6l2.2,6.3c.1.2.1.3.2.5s.1.3.1.5.1.3.1.5c0-.2.1-.3.1-.5a4.33,4.33,0,0,0,.1-.5c0-.2.1-.3.2-.5l2.2-6.3h1.5l-3.4,9.3H98.3Z"/><path d="M108.8,35.3a3.92,3.92,0,0,1-1.8-.4,3.59,3.59,0,0,1-1.4-1,5.6,5.6,0,0,1-1-1.5,6.47,6.47,0,0,1-.4-2,4.48,4.48,0,0,1,.4-2,4,4,0,0,1,1-1.5,4.51,4.51,0,0,1,1.4-1,4.78,4.78,0,0,1,1.8-.4,5.08,5.08,0,0,1,1.7.3,4.51,4.51,0,0,1,1.4,1,4.61,4.61,0,0,1,.9,1.7,8,8,0,0,1,.3,2.3h-7.3a2.5,2.5,0,0,0,.3,1.3,3.59,3.59,0,0,0,.7,1,4.7,4.7,0,0,0,.9.6,3.59,3.59,0,0,0,1.1.2,2.73,2.73,0,0,0,1.6-.4,2.44,2.44,0,0,0,.9-1.1h1.6a3.7,3.7,0,0,1-.5,1.1,3.82,3.82,0,0,1-.9.9,3.37,3.37,0,0,1-1.2.6A4,4,0,0,1,108.8,35.3Zm2.6-5.7a3.5,3.5,0,0,0-.3-1.2,5.55,5.55,0,0,0-.6-.8,2.18,2.18,0,0,0-.8-.5,3,3,0,0,0-1-.2,2.92,2.92,0,0,0-.9.2,4.05,4.05,0,0,0-.9.5,2.7,2.7,0,0,0-.7.8,3.37,3.37,0,0,0-.4,1.2Z"/><path d="M118.7,35.3a3.29,3.29,0,0,1-1.7-.4,4.49,4.49,0,0,1-1.3-1,4.17,4.17,0,0,1-.9-1.6,6.17,6.17,0,0,1,0-3.8,3.77,3.77,0,0,1,.9-1.5,4.12,4.12,0,0,1,1.3-1,4.71,4.71,0,0,1,1.7-.4,3.08,3.08,0,0,1,1.9.6,3.66,3.66,0,0,1,1.2,1.3V21.7h1.5V35.1h-1.4V33.4a3.48,3.48,0,0,1-1.3,1.4A3.83,3.83,0,0,1,118.7,35.3Zm.2-1.3a3.59,3.59,0,0,0,1.1-.2,1.6,1.6,0,0,0,.9-.7,2.38,2.38,0,0,0,.6-1.1,3.42,3.42,0,0,0,.2-1.5,6.05,6.05,0,0,0-.2-1.5,10.91,10.91,0,0,0-.6-1.1,5.5,5.5,0,0,0-.9-.7,2.15,2.15,0,0,0-1.1-.2,3.59,3.59,0,0,0-1.1.2,2.18,2.18,0,0,0-.9.7,3.88,3.88,0,0,0-.6,1.1,3.42,3.42,0,0,0-.2,1.5,6.05,6.05,0,0,0,.2,1.5,10.91,10.91,0,0,0,.6,1.1,5.5,5.5,0,0,0,.9.7A5.16,5.16,0,0,0,118.9,34Z"/><path d="M135.3,35.3a3.29,3.29,0,0,1-1.7-.4,7.1,7.1,0,0,1-1.4-1,3.77,3.77,0,0,1-.9-1.5,6.17,6.17,0,0,1,0-3.8,5.07,5.07,0,0,1,.9-1.6,4.51,4.51,0,0,1,1.4-1,4.71,4.71,0,0,1,1.7-.4,3.92,3.92,0,0,1,1.8.4,4.51,4.51,0,0,1,1.4,1,4.17,4.17,0,0,1,.9,1.6,6.17,6.17,0,0,1,0,3.8,3.77,3.77,0,0,1-.9,1.5,4.51,4.51,0,0,1-1.4,1A3.92,3.92,0,0,1,135.3,35.3Zm0-1.3a3.59,3.59,0,0,0,1.1-.2,1.6,1.6,0,0,0,.9-.7,2.38,2.38,0,0,0,.6-1.1,3.42,3.42,0,0,0,.2-1.5,6.05,6.05,0,0,0-.2-1.5,10.91,10.91,0,0,0-.6-1.1,3.11,3.11,0,0,0-.9-.7,2.15,2.15,0,0,0-1.1-.2,3.59,3.59,0,0,0-1.1.2,2.18,2.18,0,0,0-.9.7,3.88,3.88,0,0,0-.6,1.1,3.42,3.42,0,0,0-.2,1.5,6.05,6.05,0,0,0,.2,1.5,10.91,10.91,0,0,0,.6,1.1,5.5,5.5,0,0,0,.9.7A3.59,3.59,0,0,0,135.3,34Z"/><path d="M141.9,25.8h1.4v1.3a3.45,3.45,0,0,1,1.2-1.2,2.93,2.93,0,0,1,1.6-.4,3.19,3.19,0,0,1,1.4.3,2.54,2.54,0,0,1,1,.8,3.46,3.46,0,0,1,.7,1.2,7.77,7.77,0,0,1,.2,1.6v5.7h-1.5V29.4a2.86,2.86,0,0,0-.5-1.7,2.11,2.11,0,0,0-1.6-.6,3.55,3.55,0,0,0-1,.2,3.51,3.51,0,0,0-.8.5,3,3,0,0,0-.5.7,3,3,0,0,0-.2,1v5.8h-1.5V25.8Z"/><path d="M156,35.3a3.92,3.92,0,0,1-1.8-.4,3.59,3.59,0,0,1-1.4-1,5.6,5.6,0,0,1-1-1.5,6.47,6.47,0,0,1-.4-2,4.48,4.48,0,0,1,.4-2,4,4,0,0,1,1-1.5,4.51,4.51,0,0,1,1.4-1,4.78,4.78,0,0,1,1.8-.4,5.08,5.08,0,0,1,1.7.3,4.51,4.51,0,0,1,1.4,1,4.61,4.61,0,0,1,.9,1.7,8,8,0,0,1,.3,2.3H153a2.5,2.5,0,0,0,.3,1.3,3.59,3.59,0,0,0,.7,1,4.7,4.7,0,0,0,.9.6,3.59,3.59,0,0,0,1.1.2,2.73,2.73,0,0,0,1.6-.4,2.44,2.44,0,0,0,.9-1.1h1.6a3.7,3.7,0,0,1-.5,1.1,3.82,3.82,0,0,1-.9.9,3.37,3.37,0,0,1-1.2.6A3.65,3.65,0,0,1,156,35.3Zm2.7-5.7a3.5,3.5,0,0,0-.3-1.2,5.55,5.55,0,0,0-.6-.8,2.18,2.18,0,0,0-.8-.5,3,3,0,0,0-1-.2,2.92,2.92,0,0,0-.9.2,4.05,4.05,0,0,0-.9.5,2.7,2.7,0,0,0-.7.8,3.37,3.37,0,0,0-.4,1.2Z"/><path d="M162.6,22.9h1.7l-.2,8.6h-1.3Zm0,10.3h1.6v1.9h-1.6Z"/></g></g></svg>